# xmcd
#
# Track frame offsets:
#	150
#	6974
#	24512
#	39016
#	50652
#	69255
#	84585
#	99033
#	113072
#	125276
#	142008
#
# Disc length: 2056 seconds
#
# Revision: 0
# Processed by: cddbd v1.5.2PL0 Copyright (c) Steve Scherf et al.
# Submitted via: EasyCDDAExtractor 12.0.1.1
#
DISCID=8008060b
DTITLE=Anders Wyller - Det regner i Oslo
DYEAR=2009
DGENRE=Pop
TTITLE0=Preludium for bleke strandgutter
TTITLE1=Det regner i Oslo
TTITLE2=Kjaerlighet kommer stille
TTITLE3=Jeg saa deg overalt
TTITLE4=Junikveld
TTITLE5=Fire enkle sjeler
TTITLE6=Parfyme
TTITLE7=Halvveis
TTITLE8=Mens du venter paa en engel
TTITLE9=Hun har en revolver paa lur
TTITLE10=Paa denne siden av blaa
EXTD=
EXTT0=
EXTT1=
EXTT2=
EXTT3=
EXTT4=
EXTT5=
EXTT6=
EXTT7=
EXTT8=
EXTT9=
EXTT10=
PLAYORDER=
